<?xml version="1.0" standalone="no"?>
<!DOCTYPE svg PUBLIC "-//W3C//DTD SVG 20010904//EN"
 "http://www.w3.org/TR/2001/REC-SVG-20010904/DTD/svg10.dtd">
<svg version="1.0" xmlns="http://www.w3.org/2000/svg"
 width="512.000000pt" height="512.000000pt" viewBox="0 0 512.000000 512.000000"
 preserveAspectRatio="xMidYMid meet">
<metadata>
Created by potrace 1.14, written by Peter Selinger 2001-2017
</metadata>
<g transform="translate(0.000000,512.000000) scale(0.100000,-0.100000)"
fill="#000000" stroke="none">
<path d="M2360 5081 c0 -8 -8 -11 -20 -8 -11 3 -20 1 -20 -5 0 -5 -4 -6 -10
-3 -5 3 -10 0 -10 -7 0 -9 -3 -9 -10 2 -9 13 -11 13 -20 0 -8 -13 -11 -13 -19
-1 -7 11 -12 11 -31 -2 -18 -12 -28 -13 -43 -6 -13 8 -17 8 -13 1 3 -6 2 -13
-4 -17 -5 -3 -10 0 -10 7 0 9 -3 9 -10 -2 -9 -13 -10 -13 -11 0 0 10 -3 8 -9
-5 -5 -11 -9 -15 -9 -9 -1 6 -12 9 -26 6 -14 -2 -22 -8 -19 -13 3 -5 0 -9 -5
-9 -6 0 -11 4 -11 8 0 5 -7 9 -15 9 -8 0 -12 -3 -10 -6 2 -4 -8 -12 -22 -18
-21 -10 -24 -10 -19 4 6 14 4 14 -11 2 -10 -8 -21 -18 -24 -23 -4 -4 -9 -3
-13 2 -4 6 -13 9 -21 6 -8 -4 -13 -10 -10 -14 3 -5 -6 -7 -20 -5 -14 1 -25 -2
-25 -8 0 -5 -8 -3 -17 4 -9 8 -14 9 -10 3 4 -7 -1 -18 -10 -25 -12 -10 -14
-10 -9 -1 4 6 2 12 -3 12 -6 0 -11 -4 -11 -9 0 -5 -7 -12 -16 -15 -10 -4 -13
-2 -8 7 6 9 5 9 -8 0 -8 -7 -19 -9 -23 -5 -5 4 -5 2 -1 -5 3 -6 2 -14 -4 -18
-5 -3 -10 -1 -10 5 0 7 -5 6 -14 -2 -8 -7 -11 -17 -8 -22 3 -5 -1 -5 -9 0 -18
11 -39 14 -38 6 3 -20 -3 -23 -18 -11 -13 11 -15 11 -9 1 5 -9 1 -15 -13 -19
-12 -3 -18 -10 -14 -17 3 -6 3 -8 -2 -4 -4 4 -15 2 -23 -5 -13 -9 -14 -9 -8 1
4 6 2 12 -3 12 -6 0 -11 -5 -11 -11 0 -6 -7 -9 -15 -5 -9 3 -15 0 -15 -9 0 -8
-5 -15 -11 -15 -5 0 -7 5 -3 12 5 7 3 8 -5 4 -7 -5 -10 -14 -7 -22 3 -7 0 -16
-6 -20 -7 -4 -8 -3 -4 4 11 18 -20 15 -38 -4 -9 -8 -21 -12 -28 -8 -10 6 -10
5 -1 -7 10 -12 9 -15 -5 -16 -41 -3 -58 -9 -65 -21 -5 -7 -13 -9 -19 -6 -7 5
-9 1 -5 -9 4 -12 2 -14 -10 -10 -9 4 -19 -1 -25 -11 -5 -9 -13 -14 -19 -11 -8
6 -13 -9 -10 -29 1 -5 -5 -4 -13 4 -10 7 -16 8 -16 2 0 -6 -21 -21 -46 -34
-26 -13 -53 -33 -61 -45 -10 -14 -20 -20 -31 -16 -14 6 -15 4 -4 -9 11 -13 10
-16 -5 -14 -10 0 -18 -4 -18 -11 0 -6 -4 -15 -9 -20 -5 -5 -6 -3 -2 5 4 6 3
12 -2 12 -6 0 -13 -7 -16 -16 -3 -8 -10 -12 -16 -9 -5 3 -10 -1 -10 -9 0 -9
-5 -16 -11 -16 -5 0 -7 5 -3 12 4 6 3 8 -4 4 -6 -3 -9 -15 -7 -26 2 -11 -1
-17 -8 -14 -7 2 -21 -9 -32 -25 -11 -17 -21 -28 -24 -26 -2 3 2 12 10 22 12
15 11 15 -13 -1 -28 -18 -39 -33 -15 -21 6 4 4 0 -5 -8 -10 -8 -15 -17 -12
-20 4 -3 -6 -9 -20 -13 -15 -3 -25 -12 -23 -18 5 -13 -18 -38 -27 -28 -4 3 -4
-2 0 -12 4 -11 3 -17 -2 -14 -11 7 -35 -17 -27 -26 6 -6 -13 -10 -30 -7 -5 1
-6 -3 -2 -9 3 -5 -1 -13 -9 -16 -9 -3 -14 -10 -11 -14 3 -5 -4 -15 -16 -24
-12 -8 -18 -19 -14 -25 3 -7 3 -11 -2 -10 -20 3 -34 -2 -28 -11 3 -5 1 -10 -4
-10 -6 0 -11 -7 -11 -15 0 -7 -8 -19 -18 -24 -9 -6 -13 -11 -9 -11 5 0 -3 -14
-17 -31 -14 -17 -26 -35 -26 -40 0 -5 -5 -9 -11 -9 -5 0 -7 6 -3 13 4 6 3 8
-1 4 -5 -4 -10 -13 -11 -20 -3 -21 -40 -77 -47 -71 -4 4 -9 -1 -13 -10 -3 -9
-13 -16 -21 -16 -8 0 -12 -4 -9 -9 3 -5 -1 -12 -10 -15 -8 -3 -12 -2 -9 4 3 6
-1 7 -9 4 -9 -3 -16 -11 -16 -16 0 -6 -8 -4 -17 3 -9 8 -14 9 -10 2 4 -7 -1
-14 -13 -18 -11 -4 -18 -11 -15 -16 4 -5 1 -9 -4 -9 -6 0 -11 5 -11 11 0 6 -7
3 -16 -5 -8 -9 -12 -21 -8 -28 6 -9 3 -9 -9 1 -17 13 -23 6 -18 -21 0 -5 -6
-8 -14 -8 -8 0 -15 -4 -15 -10 0 -5 -7 -10 -15 -10 -8 0 -12 -6 -9 -14 3 -7
-2 -16 -11 -20 -9 -3 -13 -10 -10 -16 3 -5 1 -10 -6 -10 -10 0 -10 -3 -1 -12
7 -7 8 -17 2 -28 -7 -12 -4 -29 10 -56 11 -22 20 -32 20 -24 1 10 5 7 12 -7 6
-13 17 -23 25 -23 8 0 12 -4 9 -9 -4 -5 0 -11 6 -14 7 -2 -2 -7 -20 -11 -20
-5 -37 -16 -42 -29 -5 -12 -9 -16 -9 -9 -1 8 -11 2 -25 -12 -13 -15 -29 -26
-35 -26 -7 0 -9 -4 -6 -10 3 -5 -1 -10 -10 -10 -9 0 -13 -4 -10 -10 3 -5 -1
-10 -9 -10 -8 0 -20 -10 -27 -21 -9 -17 -8 -20 3 -13 11 6 11 5 -1 -9 -7 -9
-17 -14 -22 -11 -5 3 -6 -3 -2 -12 4 -11 3 -15 -5 -10 -7 4 -10 -1 -7 -14 2
-11 -1 -20 -7 -20 -5 0 -7 -7 -4 -16 4 -10 2 -13 -6 -8 -8 5 -9 2 -5 -9 4 -10
1 -17 -6 -17 -8 0 -6 -4 3 -10 8 -5 10 -10 4 -10 -7 0 -15 -7 -18 -16 -4 -9
-2 -13 5 -8 8 4 8 0 0 -14 -8 -14 -8 -23 -1 -27 8 -5 8 -11 1 -19 -7 -9 -7
-17 2 -26 9 -10 9 -11 0 -6 -8 5 -13 1 -13 -9 0 -9 5 -13 11 -9 8 4 8 0 0 -15
-9 -16 -9 -21 1 -21 9 0 9 -3 -2 -10 -10 -6 -11 -10 -2 -10 6 0 12 -11 12 -24
0 -13 6 -27 13 -29 10 -4 10 -6 0 -6 -7 -1 -13 -6 -13 -12 0 -5 5 -7 10 -4 6
4 10 -5 10 -19 0 -14 4 -26 8 -26 10 0 10 -3 14 -92 2 -38 -1 -68 -6 -68 -5 0
-6 -3 -3 -7 4 -3 2 -12 -4 -20 -9 -10 -8 -13 2 -13 11 0 11 -2 -1 -10 -10 -6
-11 -10 -2 -10 6 0 12 -5 12 -11 0 -5 -4 -8 -8 -5 -11 6 -9 -25 3 -43 5 -10 4
-12 -3 -7 -7 4 -12 2 -12 -3 0 -6 5 -11 10 -11 7 0 7 -6 0 -20 -8 -15 -8 -20
2 -20 9 0 9 -3 0 -12 -8 -8 -8 -17 -1 -30 7 -14 6 -20 -5 -24 -12 -5 -13 -11
-6 -25 8 -15 7 -17 -4 -13 -10 4 -16 -4 -21 -25 -4 -19 -13 -31 -23 -32 -11 0
-13 -2 -4 -6 8 -3 10 -9 3 -16 -5 -7 -11 -25 -13 -42 -2 -20 -8 -29 -17 -27
-12 3 -12 1 -1 -13 8 -10 10 -19 4 -23 -12 -9 -12 -182 0 -201 6 -9 5 -12 -2
-7 -8 4 -9 -7 -6 -36 3 -24 6 -55 7 -70 1 -14 6 -30 11 -35 5 -5 6 -2 1 6 -6
10 -4 12 4 7 9 -6 9 -11 -1 -24 -11 -13 -10 -15 4 -9 15 5 16 2 8 -19 -7 -17
-7 -23 0 -19 6 3 10 -2 10 -12 0 -10 7 -29 16 -41 8 -12 12 -22 9 -22 -3 0 6
-12 20 -27 14 -15 25 -32 24 -38 0 -5 -3 -4 -6 3 -2 6 -10 12 -16 12 -6 0 4
-14 21 -31 18 -17 32 -38 32 -46 0 -8 4 -11 10 -8 5 3 10 -4 10 -16 0 -18 3
-19 15 -9 12 10 14 8 10 -9 -2 -13 1 -21 10 -21 8 0 17 -5 21 -12 4 -7 3 -8
-4 -4 -7 4 -12 4 -12 1 0 -11 25 -32 48 -39 12 -4 22 -14 22 -21 0 -8 4 -17
10 -20 6 -4 7 1 4 12 -4 10 5 2 20 -17 14 -19 24 -40 21 -48 -3 -8 0 -10 7 -6
7 5 9 0 6 -14 -4 -12 -1 -25 4 -29 7 -3 8 -1 4 5 -4 7 -3 12 1 12 5 0 14 -9
21 -21 8 -12 9 -18 3 -15 -7 4 -8 1 -5 -8 3 -9 10 -13 15 -10 5 3 6 -2 3 -10
-4 -11 0 -16 12 -16 16 0 17 -2 4 -10 -13 -8 -12 -10 3 -10 16 0 21 -13 18
-50 0 -10 1 -11 5 -2 3 6 11 12 16 12 6 0 8 -3 5 -7 -4 -3 -1 -13 6 -21 10
-13 9 -15 -3 -8 -8 4 -5 -1 7 -12 13 -11 23 -25 23 -31 0 -5 6 -14 14 -18 14
-8 16 -12 16 -33 0 -5 8 -7 17 -3 15 5 16 3 6 -7 -10 -11 -8 -17 9 -32 12 -10
25 -18 31 -18 5 0 3 -8 -4 -17 -13 -15 -12 -16 9 -11 14 4 20 2 15 -5 -3 -5 7
-21 23 -35 16 -13 23 -21 15 -17 -10 6 -12 4 -7 -4 5 -7 14 -10 22 -7 8 3 13
2 13 -2 -4 -22 2 -42 11 -37 5 3 10 -1 10 -10 0 -9 4 -13 10 -10 6 3 10 -1 10
-10 0 -11 5 -15 14 -12 10 4 13 0 11 -14 -2 -11 0 -17 6 -14 5 4 9 -1 9 -9 0
-8 7 -22 16 -31 9 -9 14 -19 10 -22 -3 -3 2 -12 12 -20 10 -9 11 -11 2 -7 -13
7 -13 5 -1 -9 7 -9 17 -15 21 -12 5 3 6 -4 3 -15 -3 -12 0 -20 6 -20 7 0 9 -5
6 -10 -3 -6 1 -10 9 -10 9 0 16 -9 16 -20 0 -11 5 -20 11 -20 5 0 7 -4 4 -10
-3 -6 4 -10 17 -10 18 0 20 -2 8 -10 -13 -9 -13 -10 0 -11 8 -1 19 -1 23 0 5
1 6 -3 2 -9 -3 -5 -1 -10 4 -10 6 0 11 -7 11 -17 0 -9 3 -13 6 -10 4 4 15 -2
25 -14 12 -14 18 -16 22 -7 3 8 6 6 6 -5 1 -10 6 -15 11 -12 6 3 10 1 10 -6 0
-7 3 -10 6 -6 3 3 15 -4 26 -15 16 -16 22 -18 29 -7 6 11 9 10 15 -4 4 -12 10
-15 18 -7 9 7 19 4 33 -9 14 -13 24 -16 31 -9 6 6 12 6 16 -1 4 -6 16 -11 27
-11 12 0 17 -4 13 -11 -4 -7 -1 -10 7 -7 7 2 23 -6 34 -18 17 -19 24 -21 35
-11 10 9 11 9 6 -1 -4 -6 -2 -12 4 -12 6 0 9 -4 5 -9 -3 -6 4 -8 15 -6 11 2
18 0 16 -4 -3 -5 4 -17 16 -27 12 -11 18 -13 14 -6 -4 6 -2 12 3 12 6 0 11 -5
11 -10 0 -6 12 -16 28 -23 15 -6 30 -16 34 -22 5 -6 8 -5 8 3 0 10 3 10 14 0
8 -7 12 -17 9 -21 -3 -5 5 -4 17 3 15 8 20 8 16 1 -4 -6 -2 -11 4 -11 6 0 18
-7 27 -15 8 -8 19 -13 24 -10 5 4 9 1 9 -6 0 -6 8 -9 20 -6 11 3 23 0 27 -5 4
-7 1 -8 -7 -3 -9 5 -11 4 -6 -4 6 -9 11 -9 22 0 12 10 15 10 12 -2 -2 -8 3
-13 10 -12 6 2 12 -1 12 -6 0 -6 9 -8 20 -6 14 3 20 -2 20 -13 0 -13 2 -14 9
-4 6 11 10 10 15 -4 6 -16 8 -16 16 -4 8 13 12 12 24 -5 14 -17 17 -18 26 -5
8 12 10 10 10 -10 0 -17 3 -21 9 -12 6 10 10 10 21 -3 11 -13 15 -13 21 -3 7
11 9 11 9 0 0 -7 4 -10 10 -7 5 3 10 1 10 -6 0 -6 8 -9 20 -6 11 3 20 1 20 -4
0 -5 5 -9 11 -9 5 0 7 6 4 13 -4 6 1 3 9 -7 10 -13 16 -15 16 -7 0 10 4 11 13
3 7 -6 24 -12 37 -14 14 -2 31 -7 39 -12 11 -7 12 -6 6 5 -7 11 -5 11 11 -1
10 -8 22 -19 26 -25 5 -6 8 -5 8 3 0 6 4 12 10 12 5 0 7 -8 3 -18 -3 -9 -2
-14 2 -9 5 4 17 -1 28 -10 20 -17 20 -17 13 2 -6 17 -5 17 18 -4 13 -13 29
-20 34 -17 6 3 18 -1 26 -10 12 -11 16 -12 16 -2 0 9 3 9 8 2 10 -15 60 -24
65 -11 1 5 11 2 20 -7 12 -13 17 -14 17 -4 0 10 2 10 8 1 8 -12 36 -12 48 0 4
4 14 1 21 -5 18 -15 125 -19 116 -5 -4 6 -1 7 8 1 18 -11 90 -13 83 -2 -3 4 5
6 18 4 13 -2 28 1 35 6 7 5 18 6 25 2 20 -13 39 -13 31 -2 -4 7 2 9 15 6 12
-4 22 -2 22 3 0 6 9 5 20 -1 15 -8 20 -8 18 1 -2 6 6 13 16 15 10 1 22 8 26
14 6 9 9 9 14 -1 5 -11 7 -11 12 -1 3 6 10 10 15 6 5 -3 9 0 9 6 0 6 5 8 10 5
6 -3 10 -1 10 4 0 6 9 11 19 11 10 0 22 7 25 16 5 13 9 14 21 4 12 -10 15 -10
15 0 0 7 7 10 16 6 14 -5 15 -4 5 8 -11 13 -8 14 18 6 19 -5 33 -5 37 1 3 5
10 7 15 4 5 -4 9 -1 9 4 0 6 5 11 11 11 5 0 8 -4 5 -9 -4 -5 3 -7 14 -4 11 3
20 9 20 13 0 4 11 6 25 5 14 -2 23 1 19 6 -3 5 3 9 13 9 11 0 25 6 32 12 11
11 12 10 6 -2 -8 -13 -6 -13 8 -2 9 8 22 10 28 6 8 -4 9 -3 5 4 -6 11 12 17
37 13 4 0 7 4 7 9 0 6 5 10 11 10 5 0 7 -6 4 -12 -4 -7 -1 -6 7 3 7 9 18 14
25 12 6 -2 15 1 19 8 5 8 3 10 -7 4 -8 -5 -10 -4 -6 0 10 12 39 16 32 5 -3 -4
6 -3 20 3 14 7 23 17 21 23 -3 7 3 10 15 7 10 -3 19 -1 19 4 0 5 10 10 22 10
13 1 27 8 33 16 5 8 15 12 22 10 7 -3 20 5 30 16 12 15 19 17 25 8 6 -9 8 -9
8 1 0 6 7 12 16 12 11 0 14 5 10 16 -5 14 -4 15 9 4 11 -9 15 -9 15 -1 0 7 8
11 17 9 10 -2 18 3 18 12 0 8 8 14 18 14 9 -1 17 5 17 14 0 8 3 12 7 9 3 -4
12 1 20 11 8 9 12 12 9 5 -4 -7 1 -9 15 -6 15 4 17 8 8 14 -8 5 3 11 30 19 23
6 40 14 37 18 -2 4 13 7 34 7 21 0 37 2 35 5 -2 3 8 10 21 17 13 6 22 7 18 2
-3 -5 2 -6 10 -3 9 3 16 10 16 16 0 5 5 6 10 3 6 -3 10 -1 10 5 0 6 4 9 9 6 5
-3 11 1 15 9 3 8 14 15 24 15 10 0 24 10 31 22 9 18 10 19 6 3 -6 -19 -5 -19
14 2 12 12 21 27 21 33 0 6 5 8 10 5 6 -3 10 1 10 9 0 10 6 13 17 9 11 -4 14
-3 9 5 -4 7 -1 12 9 12 10 0 15 6 12 13 -6 15 18 39 29 29 5 -4 2 2 -6 12 -8
11 -10 17 -4 13 15 -9 25 17 17 40 -5 15 -3 15 11 -2 10 -11 15 -15 12 -10 -6
14 24 76 34 70 4 -2 6 10 4 28 -1 17 0 26 3 19 4 -10 8 -10 19 -1 8 6 14 17
14 23 0 6 -5 4 -10 -4 -7 -11 -10 -11 -10 -2 0 7 10 17 23 22 12 5 18 9 13 9
-5 1 7 16 27 35 20 18 33 37 29 41 -4 5 2 5 13 1 11 -4 16 -4 13 0 -12 11 12
46 28 40 12 -5 12 -2 3 15 -8 15 -8 19 0 15 6 -4 11 -1 11 8 0 8 12 24 26 35
15 12 23 21 18 21 -5 0 -1 5 9 11 9 5 17 17 17 24 0 8 5 15 11 15 5 0 7 5 3
12 -5 7 -2 9 7 6 10 -4 15 1 16 15 1 12 12 29 24 38 12 9 19 21 15 27 -3 5 1
12 9 16 8 3 15 15 15 26 0 12 5 18 10 15 6 -3 10 1 10 10 0 8 6 18 14 21 8 3
12 12 9 20 -3 7 2 16 10 20 9 3 13 12 10 20 -3 8 1 14 8 14 7 0 9 3 6 7 -4 3
0 11 8 17 8 6 16 21 18 33 2 12 7 26 12 30 4 5 5 2 1 -5 -4 -6 -2 -12 3 -12 6
0 11 8 11 18 0 14 2 15 10 2 7 -11 10 -11 10 -2 0 7 5 10 12 6 7 -4 8 -3 4 5
-9 14 20 45 34 36 6 -4 10 -3 9 2 -3 19 2 34 10 29 5 -3 14 8 20 24 5 17 15
30 21 30 6 0 16 11 22 25 6 14 18 25 27 26 10 0 12 2 4 6 -7 2 -13 9 -13 14 0
6 3 8 8 6 4 -3 13 1 20 9 9 10 10 14 1 14 -7 0 -2 9 11 20 13 11 18 20 11 20
-7 0 -3 10 9 22 11 12 20 27 20 32 0 6 -5 4 -10 -4 -5 -8 -10 -10 -10 -4 0 6
7 17 16 25 9 8 14 22 11 37 -3 14 1 26 9 29 12 4 12 8 2 21 -8 10 -8 13 -2 9
16 -10 25 18 11 33 -8 9 -8 11 -1 7 8 -4 12 3 11 21 0 15 3 48 5 75 3 26 2 50
-4 53 -5 3 -5 11 2 19 6 7 7 16 2 19 -4 2 -8 20 -8 38 1 18 -6 39 -14 46 -8 8
-9 11 -2 7 17 -8 15 6 -3 33 -15 20 -15 21 2 16 17 -5 17 -5 1 6 -10 6 -18 20
-18 32 0 11 -8 27 -17 35 -10 8 -13 12 -6 9 7 -4 9 1 6 14 -3 11 -9 20 -14 20
-5 0 -9 7 -9 15 0 8 -5 15 -11 15 -8 0 -7 6 2 17 10 11 10 14 2 9 -9 -5 -13 2
-13 24 0 20 -4 29 -11 24 -6 -3 -4 5 6 19 11 17 13 27 5 32 -6 3 -8 11 -4 16
3 5 1 16 -6 24 -13 16 3 30 23 20 6 -4 5 -1 -3 7 -9 7 -14 21 -12 32 3 13 0
16 -10 11 -7 -3 -5 0 5 8 18 15 18 15 0 20 -17 4 -17 5 0 6 15 1 16 3 5 15 -7
8 -17 11 -23 8 -5 -2 -4 1 3 9 14 15 17 33 4 25 -5 -3 -9 1 -9 8 0 8 7 12 15
8 11 -4 13 -2 6 9 -13 21 -15 47 -4 54 6 4 8 11 5 16 -4 5 -1 9 5 9 6 0 10 8
8 18 -2 10 2 16 10 14 8 -1 10 2 7 8 -4 6 -1 25 6 42 10 25 10 31 -2 39 -11 7
-10 9 6 9 17 0 17 2 5 10 -9 6 -10 10 -3 10 8 0 9 9 3 30 -6 21 -5 30 3 30 7
0 6 4 -3 10 -8 5 -10 10 -5 10 12 0 12 67 0 78 -5 4 -5 1 0 -7 6 -10 4 -12 -4
-6 -8 5 -9 11 -3 17 6 6 5 20 -5 39 -8 16 -12 33 -9 38 3 4 -3 16 -14 26 -11
10 -17 22 -13 28 4 6 1 7 -6 3 -8 -5 -14 0 -18 13 -3 11 -9 19 -13 16 -4 -3
-11 2 -14 11 -3 8 -10 12 -16 9 -6 -4 -7 1 -3 11 4 11 2 15 -4 11 -6 -4 -13 0
-17 8 -3 9 -12 12 -23 9 -12 -4 -14 -3 -6 3 15 11 4 27 -21 31 -10 2 -30 15
-45 29 -14 14 -20 22 -12 18 11 -6 13 -4 8 10 -6 14 -3 16 12 12 15 -3 17 0
13 16 -3 14 -1 18 6 13 7 -4 12 -2 12 4 0 7 7 9 16 6 13 -5 14 -3 6 7 -7 8 -7
18 -2 27 6 9 4 20 -3 29 -9 11 -9 13 0 8 7 -5 9 0 6 13 -3 11 -10 17 -17 13
-6 -4 -6 0 2 9 10 13 10 17 -4 22 -9 4 -14 12 -10 22 3 8 2 12 -4 9 -6 -3 -10
-2 -10 4 0 5 -10 13 -21 16 -17 6 -19 9 -8 17 10 7 8 8 -9 5 -13 -3 -20 -1
-16 5 9 15 -26 47 -47 43 -10 -2 -19 1 -19 7 0 6 -3 8 -7 5 -3 -4 -13 2 -21
14 -10 15 -17 18 -25 10 -14 -14 -30 -14 -22 -1 3 6 -3 10 -15 10 -13 0 -24 9
-30 25 -5 14 -12 25 -15 25 -4 0 -3 -4 0 -10 3 -6 -1 -7 -10 -4 -12 5 -13 9
-4 20 11 13 3 18 -22 16 -3 -1 -6 5 -6 13 0 8 5 11 11 8 6 -4 5 1 -3 10 -7 9
-18 14 -25 10 -6 -4 -5 1 3 11 12 14 12 17 1 14 -7 -2 -19 7 -25 19 -7 13 -15
20 -18 16 -4 -3 -7 4 -7 16 0 12 -4 20 -9 17 -5 -3 -11 4 -14 15 -4 15 -11 20
-23 15 -14 -5 -15 -4 -4 9 8 10 9 15 1 15 -6 0 -11 6 -11 14 0 8 -5 18 -12 22
-7 5 -8 3 -3 -6 5 -9 4 -11 -3 -6 -7 4 -12 14 -12 22 0 8 -5 13 -12 12 -7 -2
-12 4 -13 12 -1 8 -6 14 -12 13 -6 -1 -9 7 -6 20 3 16 2 18 -5 8 -8 -11 -11
-9 -17 8 -3 12 -11 19 -16 16 -5 -4 -9 1 -9 9 0 8 -9 18 -21 21 -13 4 -18 12
-15 21 3 9 1 12 -4 9 -6 -3 -13 1 -16 9 -3 9 -13 16 -21 16 -8 0 -11 5 -8 10
3 6 1 10 -5 10 -6 0 -8 4 -5 10 3 6 -1 7 -9 4 -11 -4 -16 0 -16 11 0 9 -4 13
-10 10 -5 -3 -10 -1 -10 5 0 14 -20 34 -42 43 -10 3 -18 11 -18 18 0 6 -7 8
-17 5 -10 -4 -14 -4 -11 0 11 10 -52 65 -66 57 -6 -3 -8 -3 -4 1 11 13 -24 45
-44 41 -10 -2 -16 0 -13 6 6 8 -8 13 -28 10 -5 -1 -11 8 -14 19 -3 11 -9 17
-14 14 -5 -3 -9 0 -9 6 0 6 -4 8 -10 5 -5 -3 -10 1 -10 9 0 10 -6 13 -17 9
-12 -5 -14 -3 -8 7 6 10 3 12 -13 8 -12 -3 -21 -3 -20 1 2 21 -4 29 -22 26
-13 -2 -21 3 -26 17 -5 16 -8 18 -15 7 -7 -11 -9 -9 -9 6 0 16 -2 17 -10 5 -8
-12 -10 -12 -16 3 -3 9 -9 15 -13 12 -4 -2 -13 4 -21 15 -7 10 -19 16 -27 13
-7 -3 -13 0 -13 6 0 6 -6 8 -13 5 -8 -3 -19 5 -26 18 -9 18 -10 19 -6 3 4 -17
2 -16 -16 5 -11 14 -18 19 -14 13 9 -19 -6 -16 -22 5 -8 10 -11 11 -7 2 7 -12
5 -13 -8 -3 -8 7 -19 9 -23 5 -5 -4 -5 -1 -1 6 5 8 -1 12 -18 12 -14 0 -26 5
-26 11 0 5 -8 9 -17 8 -30 -3 -52 11 -46 29 4 13 2 12 -11 -3 l-18 -20 7 20
c5 15 3 17 -6 8 -9 -9 -15 -9 -26 2 -7 8 -21 11 -30 8 -11 -4 -14 -3 -9 6 6 8
2 11 -10 9 -12 -2 -18 2 -16 11 3 12 0 12 -12 1 -11 -8 -16 -9 -16 -1 0 6 -5
11 -11 11 -5 0 -7 -6 -3 -12 4 -7 -1 -5 -12 4 -15 13 -23 14 -39 6 -18 -10
-19 -10 -6 5 11 14 11 17 -1 17 -8 0 -19 -5 -26 -12 -9 -9 -13 -7 -18 5 -3 9
-10 14 -15 11 -5 -3 -9 1 -9 8 0 9 -3 9 -10 -2 -9 -13 -10 -13 -10 0 0 13 -1
13 -10 0 -8 -13 -10 -13 -10 2 0 15 -4 16 -26 7 -22 -8 -25 -7 -16 3 8 10 2
13 -29 14 -26 1 -37 -2 -33 -10 3 -6 -2 -2 -10 8 -12 15 -16 16 -16 5 -1 -10
-3 -9 -11 4 -8 13 -14 15 -30 7 -14 -8 -19 -7 -19 1 0 8 -4 8 -15 -1 -9 -7
-15 -8 -15 -2 0 5 -7 13 -16 16 -10 4 -13 2 -9 -7 4 -6 -1 -3 -9 7 -14 18 -21
15 -17 -7 1 -4 -7 -4 -16 1 -10 4 -36 7 -58 5 -23 -1 -42 3 -47 10 -6 9 -8 9
-8 -1 0 -8 -5 -10 -12 -5 -23 14 -50 14 -42 1 6 -10 5 -10 -7 -2 -16 13 -119
14 -119 1 0 -4 -10 -5 -21 -2 -15 5 -19 4 -14 -5 6 -9 3 -9 -13 -1 -15 8 -23
8 -28 0 -5 -9 -11 -6 -21 6 -8 12 -13 14 -13 6z m-1180 -466 c0 -2 -10 -9 -22
-15 -22 -11 -22 -10 -4 4 21 17 26 19 26 11z m3581 -772 c13 -16 12 -17 -3 -4
-17 13 -22 21 -14 21 2 0 10 -8 17 -17z m-1385 -462 c-4 -5 0 -11 6 -14 9 -3
7 -7 -5 -12 -24 -10 -33 1 -17 20 14 16 25 21 16 6z m1634 -36 c7 -9 8 -15 2
-15 -5 0 -12 7 -16 15 -3 8 -4 15 -2 15 2 0 9 -7 16 -15z"/>
<path d="M610 4079 c0 -5 5 -7 10 -4 6 3 10 8 10 11 0 2 -4 4 -10 4 -5 0 -10
-5 -10 -11z"/>
<path d="M4539 1123 c-13 -16 -12 -17 4 -4 9 7 17 15 17 17 0 8 -8 3 -21 -13z"/>
</g>
</svg>
